<svg width="55" height="55" viewBox="0 0 55 55" fill="none" xmlns="http://www.w3.org/2000/svg">
<path d="M16.5125 40.4181C12.8418 37.2923 10.5 32.6407 10.5 27.4825C10.5 18.1079 18.1157 10.5 27.5 10.5C36.8843 10.5 44.5 18.1079 44.5 27.4825C44.5 32.6437 42.1551 37.2985 38.5454 40.4634L38.4066 40.5851C38.2824 40.6798 38.1525 40.7755 38.0188 40.8738L37.9952 40.8911C37.8443 41.002 37.6887 41.1164 37.5396 41.2309C37.4399 41.2941 37.3521 41.3621 37.284 41.4148L37.2739 41.4227C37.1925 41.4857 37.1361 41.5285 37.0778 41.5634L37.066 41.5705L37.0547 41.5781C34.2443 43.4805 30.9288 44.4981 27.535 44.5C24.1482 44.4981 20.8394 43.4847 18.0326 41.5899C18.0054 41.5676 17.9744 41.5414 17.9405 41.5126C17.8239 41.4138 17.6725 41.2855 17.5188 41.1907C17.2125 40.9757 16.9326 40.76 16.6468 40.5379C16.5942 40.4727 16.5391 40.4358 16.5205 40.4234C16.5176 40.4214 16.515 40.4197 16.5125 40.4181ZM27.5 43.2972H27.5008C30.761 43.292 33.9405 42.2834 36.6076 40.4084L36.8604 40.2307L36.8144 39.9251C36.7042 39.1916 36.52 38.4913 36.261 37.8253L36.2612 37.8253L36.256 37.813C35.7767 36.6716 35.1109 35.6725 34.2586 34.8202L34.2586 34.8201L34.2515 34.8132C32.4375 33.07 30.0141 32.1046 27.4983 32.1231C26.6516 32.123 25.8085 32.2339 24.9906 32.453L24.9884 32.4536C24.1826 32.6733 23.4417 32.9688 22.7345 33.3782L22.7344 33.3781L22.7243 33.3843C22.0652 33.7871 21.4058 34.2969 20.8521 34.8495C20.2548 35.4107 19.7723 36.0437 19.3673 36.7432C18.951 37.4608 18.6286 38.2289 18.408 39.0286L18.4079 39.0286L18.4049 39.0403L18.3989 39.0643C18.332 39.332 18.2571 39.6312 18.2189 39.9374L18.1816 40.2355L18.4274 40.4083C20.9914 42.2118 24.1009 43.2972 27.5 43.2972ZM31.9486 19.9255L31.9478 19.9248C31.3758 19.3552 30.6943 18.9024 29.9452 18.5653C29.1722 18.2175 28.3659 18.0662 27.5 18.0662C26.6708 18.0662 25.8291 18.2169 25.0548 18.5653C24.3065 18.902 23.6243 19.3526 23.0514 19.9255C22.4795 20.4975 22.0264 21.177 21.689 21.9267C21.341 22.7001 21.1903 23.5408 21.19 24.3672C21.1819 25.2044 21.35 26.034 21.6834 26.8021C21.986 27.5589 22.4402 28.2431 23.0175 28.8171L23.0184 28.818C23.5979 29.3911 24.278 29.8523 25.0248 30.1785L25.0248 30.1786L25.0353 30.1829C26.6034 30.826 28.3616 30.826 29.9297 30.1829L29.9298 30.183L29.9402 30.1785C30.687 29.8523 31.3671 29.3911 31.9466 28.818L31.9466 28.818L31.9502 28.8144C32.5234 28.2358 32.985 27.5565 33.3119 26.8105C33.6592 26.0402 33.81 25.2344 33.81 24.3697C33.81 23.5425 33.6593 22.7009 33.311 21.9267L33.3107 21.9262C32.9737 21.1795 32.5208 20.4978 31.9486 19.9255ZM37.885 38.2625V39.4259L38.739 38.5696C41.6746 35.6262 43.3253 31.6402 43.33 27.4831V27.4825C43.33 18.7796 36.2107 11.6678 27.5 11.6678C18.7893 11.6678 11.67 18.7796 11.67 27.4825C11.67 31.8189 13.4435 35.7183 16.2944 38.603L17.15 39.4688V38.2646L17.1508 38.263L17.163 38.2233C17.4842 37.1771 17.968 36.188 18.5965 35.2921C19.2343 34.4201 20.0054 33.6182 20.8749 32.9494L20.8773 32.9475C21.5455 32.4268 22.2745 31.9894 23.0483 31.6449L23.9018 31.265L23.1123 30.7656C22.7578 30.5413 22.4369 30.2851 22.1486 29.9968C21.636 29.4842 21.1838 28.9626 20.8671 28.3925L20.8619 28.3831L20.8562 28.3739C20.498 27.7898 20.235 27.1675 20.0358 26.4701L20.0358 26.4701L20.0338 26.4636C19.8386 25.8142 19.74 25.1286 19.74 24.4047H19.74L19.74 24.3995C19.7292 23.3641 19.9304 22.3375 20.331 21.3827C20.717 20.4636 21.2752 19.6268 21.9757 18.9176L21.9785 18.9148C22.6762 18.1972 23.5126 17.6291 24.4368 17.2452L24.4385 17.2445C25.3946 16.8433 26.4227 16.6421 27.4596 16.6534V16.6535L27.4708 16.6534C28.507 16.6415 29.5347 16.8418 30.4906 17.2419C31.4085 17.6324 32.2457 18.1905 32.9592 18.8875C33.6704 19.5932 34.2393 20.429 34.6348 21.3495C35.0349 22.3037 35.2358 23.3298 35.225 24.3645L35.2249 24.3645L35.2251 24.3775C35.2469 25.7735 34.8721 27.1471 34.1441 28.3384C33.7802 28.9283 33.347 29.4726 32.8537 29.9595L32.8537 29.9595L32.8496 29.9636C32.5638 30.2523 32.2497 30.5116 31.912 30.7375L31.1536 31.2449L31.9894 31.6111C32.7611 31.9492 33.491 32.3759 34.1642 32.8826C35.043 33.5443 35.8092 34.3436 36.4332 35.2496L36.4341 35.2508C37.0495 36.1385 37.5291 37.1129 37.8573 38.1417C37.8648 38.1939 37.8766 38.2359 37.885 38.2625Z" fill="black" stroke="black"/>
</svg>
