<svg width="55" height="56" viewBox="0 0 55 56" fill="none" xmlns="http://www.w3.org/2000/svg">
<path d="M17.3358 14.05L17.3222 14.0213L15.6908 10.55H10.05V13.95H13.5H13.5316L13.5452 13.9786L19.8452 27.2611L19.8562 27.2843L19.8437 27.3068L17.4641 31.5936C17.464 31.5937 17.464 31.5938 17.4639 31.594C17.2052 32.0769 17.05 32.6462 17.05 33.25C17.05 34.165 17.4135 35.0425 18.0605 35.6895C18.7075 36.3365 19.585 36.7 20.5 36.7H41.45V33.3H21.235C21.1057 33.3 20.9817 33.2486 20.8903 33.1572C20.7989 33.0658 20.7475 32.9418 20.7475 32.8125V32.8L20.749 32.8004L20.8015 32.5904L20.8047 32.5775L20.8062 32.5783L22.3812 29.7258L22.3955 29.7H22.425H35.4625C36.756 29.7 37.8947 28.9756 38.4812 27.9233L17.3358 14.05ZM17.3358 14.05H17.3675H43.25C43.7009 14.05 44.1333 14.2291 44.4521 14.5479C44.7709 14.8667 44.95 15.2991 44.95 15.75C44.95 16.0373 44.8656 16.3269 44.7451 16.6028L38.4813 27.9232L17.3358 14.05ZM36.25 26.3H36.2794L36.2937 26.2743L41.1587 17.5243L41.2 17.45H41.115H18.995H18.9161L18.9498 17.5213L23.0798 26.2713L23.0933 26.3H23.125H36.25ZM38 38.55C38.915 38.55 39.7925 38.9135 40.4395 39.5605C41.0865 40.2075 41.45 41.085 41.45 42C41.45 42.915 41.0865 43.7925 40.4395 44.4395C39.7925 45.0865 38.915 45.45 38 45.45C37.085 45.45 36.2075 45.0865 35.5605 44.4395C34.9135 43.7925 34.55 42.915 34.55 42C34.55 40.0851 36.0851 38.55 38 38.55ZM20.5 38.55C21.415 38.55 22.2925 38.9135 22.9395 39.5605C23.5865 40.2075 23.95 41.085 23.95 42C23.95 42.915 23.5865 43.7925 22.9395 44.4395C22.2925 45.0865 21.415 45.45 20.5 45.45C19.585 45.45 18.7075 45.0865 18.0605 44.4395C17.4135 43.7925 17.05 42.915 17.05 42C17.05 40.0851 18.5851 38.55 20.5 38.55Z" fill="black" stroke="black" stroke-width="0.1"/>
</svg>
